<svg height="67958205" width="372411417" viewBox="664 107 372411417 67958205" style="background-color:transparent;" preserveAspectRatio="xMinYMin meet" xmlns:xlink="http://www.w3.org/1999/xlink" xmlns="http://www.w3.org/2000/svg"><defs><style type="text/css">.svg-txt-center tspan {text-anchor: middle;}.svg-txt-right tspan {text-anchor: end;}</style></defs><g transform="translate(0,0)"><g transform="matrix(1,0,0,1,372411605,67958259)"><path style="fill:none;stroke:#333333;stroke-width:3.0;;" d="m105.50825363416658,29.26881934366494c0,4.810975287874417 -4.558911334183951,8.710332960793401 -10.183635098483084,8.710332960793401l-85.10953362522451,0c-5.624723764299132,0 -10.183635098483084,-3.8993576729189847 -10.183635098483084,-8.710332960793401l0,-18.043706595790123c0,-4.810975287874417 4.558911334183951,-8.710332960793401 10.183635098483084,-8.710332960793401l86.5639980153146,-2.488593724047799c5.625296012583758,0 10.184207346767709,5.143889067438901 10.184207346767709,9.954864355313317l-1.4550557133175144,19.287748531187916z"/></g><text style="font-weight:bold; font-size: 12px; text-anchor: middle; font-family: arial,helvetica,sans-serif; fill: #333333;" class="svg-txt-center" y="67958282" x="372411658">My Activity</text></g><g transform="translate(0,0)"><g transform="matrix(1,0,0,1,372411979,67958079)"><path style="fill:rgb(250,192,151);stroke:rgb(157,80,37);stroke-width:3.0;;fill-opacity: 1; stroke: none;" d="m12.309708454864305,86.0732c0,0 -9.443322228603307,-17.8271 -9.888116535201181,-25.5244c6.722328519217645,-1.40389 11.604221843671386,-0.602026 18.035515539364415,-1.10976c2.980685863655663,0.479542 10.734319043612787,1.06097 10.734319043612787,1.06097l0,0z"/><path style="fill:rgb(250,192,151);stroke:rgb(157,80,37);stroke-width:3.0;;fill-opacity: 1; stroke: none;" d="m74.87808191122126,86.2195c0,0 10.407015141402956,-18.4168 9.694707881660351,-25.6463c-5.066420563809837,-2.01047 -12.037289908103476,-0.872098 -17.842126710408817,-1.13415c-3.7100620912845583,0.525467 -10.927707872568385,1.06097 -10.927707872568385,1.06097l0,0z"/><path style="fill:rgb(116,59,27);stroke:rgb(157,80,37);stroke-width:3.0;;fill-opacity: 1; stroke: none;" d="m12.309718367156924,17.780488l-9.88811554397192,25.670732l18.19268385986862,1.097561l10.577141802045226,-1.121952l0,0z"/><path style="fill:rgb(116,59,27);stroke:rgb(157,80,37);stroke-width:3.0;;fill-opacity: 1; stroke: none;" d="m74.87804424450933,17.780488l9.888116535201181,25.670732l-18.035537346408173,1.109756l-10.92769895150503,-1.134147l0,0z"/><path style="fill:rgb(157,80,37);stroke:rgb(157,80,37);stroke-width:3.0;;fill-opacity: 1; stroke: none;" d="m74.87804424450933,42c1.129579094660412,-7.942396 -0.6070446595267625,-16.946205 0,-24.219512c-7.496434958509536,2.069758 -14.395121996737693,2.844001 -19.075119762712017,4.97561c-0.33884676696220567,6.803141 -1.1655815326742318,8.998219 0,20.670731c8.240243484188628,-1.745504 0,0 0,0c0,0 14.183210066568906,-2.243557 19.075119762712017,-1.426829z"/><path style="fill:rgb(245,133,54);stroke:rgb(157,80,37);stroke-width:3.0;;fill-opacity: 1; stroke: none;" d="m74.87804424450933,42c-1.2472518852326049,-5.19941 0.38311704824777665,-18.346378 0,-24.219512c5.260377367132382,2.594019 6.833643565305363,3.539946 9.888116535201181,4.987805c-0.8525632265838663,4.805523 -0.030173018725824684,13.073616 0,20.682927c-3.358391791363877,-1.62391 0,0 0,0c0,0 -6.180880438541701,-1.507284 -9.888116535201181,-1.45122z"/><path style="fill:rgb(157,80,37);stroke:rgb(157,80,37);stroke-width:3.0;;fill-opacity: 1; stroke: none;" d="m74.87804424450933,62c1.6718845886477176,7.240123 5.323019091554104,16.076485 0,24.219513c-5.4940943585998125,-1.496577 -13.468025268279616,-3.155708 -19.075119762712017,-5.048781c0.3139897107668211,-8.813087 0,-20.670732 0,-20.670732l0,0c0,0 12.86303740947086,-0.595322 19.075119762712017,1.5z"/><path style="fill:rgb(245,133,54);stroke:rgb(157,80,37);stroke-width:3.0;;fill-opacity: 1; stroke: none;" d="m74.87804424450933,62c-1.037745668481938,5.960762 -0.7296071840468691,17.9314 0,24.219513c3.3628146563295354,-2.317301 7.795237054528752,-5.147309 9.694705899201827,-4.890244c1.000782729313541,-10.702915 0,-20.756098 0,-20.756098l0,0c0,0 -5.966870076025917,1.416409 -9.694705899201827,1.426829z"/><path style="fill:rgb(245,133,54);stroke:rgb(157,80,37);stroke-width:3.0;;fill-opacity: 1; stroke: none;" d="m12.309718367156924,42c0.9201452376458482,-7.628516 -0.8208419077512829,-18.14054 0,-24.219512c8.779617913249119,1.950224 9.307386038884488,2.717797 18.881709126712664,4.97561c0.7473174772654733,6.637374 -0.5751141913199626,11.917928 0,20.670731c-6.363315192926369,-1.89149 0,0 0,0c0,0 -13.290129352684223,-2.265465 -18.881709126712664,-1.426829z"/><path style="fill:rgb(157,80,37);stroke:rgb(157,80,37);stroke-width:3.0;;fill-opacity: 1; stroke: none;" d="m12.309708454864305,42c0.31543095811331745,-7.85752 0.8743117878145931,-17.7854 0,-24.2195c-3.134722890922192,1.69513 -7.661339823401227,2.70126 -9.888116535201181,4.9878c0.024864986029478064,6.59458 -0.6079536167597317,14.961 0,20.6829c3.6467621906330745,0.17451 4.73386314651305,-1.41787 9.888116535201181,-1.45122z"/><path style="fill:rgb(245,133,54);stroke:rgb(157,80,37);stroke-width:3.0;;fill-opacity: 1; stroke: none;" d="m12.309718367156924,62c-5.431882827677664,5.92843 -0.8433001891333791,14.332694 0,24.219513c5.160319711769672,-1.687515 13.46387895627797,-4.076378 18.881709126712664,-5.048781c-0.8996059761143826,-7.796472 0,-20.670732 0,-20.670732l0,0c0,0 -14.01745770065847,0.0345 -18.881709126712664,1.5z"/><path style="fill:rgb(157,80,37);stroke:rgb(157,80,37);stroke-width:3.0;;fill-opacity: 1; stroke: none;" d="m12.309718367156924,62c0.4601355618810414,6.105691 0.8743117878145931,16.03359 0,24.219513c-5.884114327425994,-1.9871 -7.806048392085998,-4.161115 -9.88811554397192,-4.987805c-0.988072196490898,-7.616474 0,-20.682927 0,-20.682927l0,0c0,0 6.840814117784423,1.683638 9.88811554397192,1.451219z"/><path style="fill:rgb(250,192,151);stroke:rgb(157,80,37);stroke-width:3.0;;fill-opacity: 1; stroke: none;" d="m43.59389518304279,61.7317c-6.851842534549979,1.43793 -11.362064535040671,-0.24136 -19.848771227772794,1.93902c3.6315468214661424,11.6427 19.848771227772794,38.3293 19.848771227772794,38.3293l19.655382398817196,-38.3049c0,0 -2.2539066566923935,-0.791346 -5.525379536557253,-1.23873c-3.271482792157476,-0.447381 -7.136860596456143,0.521221 -14.129973125382094,-0.724687z"/><path style="fill:rgb(116,59,27);stroke:rgb(157,80,37);stroke-width:3.0;;fill-opacity: 1; stroke: none;" d="m43.59389518304279,42.2683l-19.848771227772794,-1.93902l19.848771227772794,-38.3293l19.655382398817196,38.3049l0,0z"/><path style="fill:rgb(245,133,54);stroke:rgb(157,80,37);stroke-width:3.0;;fill-opacity: 1; stroke: none;" d="m43.59389518304279,37.4268c-5.995797119569798,-6.99017 -1.3409052083355408,-26.4575 0,-35.4268c7.070933938261183,4.65664 10.352596654936209,5.43039 19.655382398817196,9.91463c-1.134075310591435,7.37461 0.34009868951971933,20.5462 0,28.3902c-5.620220352315693,-1.82318 -10.250301795129865,-0.538032 -19.655382398817196,-2.87805z"/><path style="fill:rgb(157,80,37);stroke:rgb(157,80,37);stroke-width:3.0;;fill-opacity: 1; stroke: none;" d="m43.59389518304279,37.4268c1.3109106108768203,-9.69828 -1.084166917265375,-25.819 0,-35.4268c-10.375890542585909,4.22462 -15.240249021400365,6.33321 -19.848771227772794,10.0122c-0.7203134184892694,7.60162 0,28.3171 0,28.3171l0,0c0,0 13.831018380056577,-2.90753 19.848771227772794,-2.90244z"/><path style="fill:rgb(245,133,54);stroke:rgb(157,80,37);stroke-width:3.0;;fill-opacity: 1; stroke: none;" d="m43.59388130583312,66.573171c-2.450098682000049,12.725385 -3.011342602261192,22.795143 0,35.426829c5.797001134991685,-3.852109 15.804309023993968,-8.15393 19.655350679480822,-9.914634c-1.2907400866307028,-11.26174 0,-28.390244 0,-28.390244c-6.831602624255544,0.1466 -13.482509110251423,0.860656 -19.655350679480822,2.878049z"/><path style="fill:rgb(157,80,37);stroke:rgb(157,80,37);stroke-width:3.0;;fill-opacity: 1; stroke: none;" d="m43.59388130583312,66.573171c-0.2984452534850083,8.929022 2.1431120059670636,25.130909 0,35.426829c-6.871250803493857,-4.251835 -14.657479566492377,-8.189634 -19.84876131548018,-10.012195c-0.7224197806703594,-8.905226 0,-28.317073 0,-28.317073l0,0c0,0 13.44777841938035,1.598347 19.84876131548018,2.902439z"/></g></g><g transform="translate(0,0)"><path style="fill:none;stroke:#333333;stroke-width:2;;" d="M789,315 C892,315 892,316  995,316"/><polyline style="fill:#ffffff;stroke:#333333;stroke-width:2;fill-opacity:0;" points="977,325 995,316 977,305"/><text style="font-weight:Normal; font-size: 12px; text-anchor: middle; font-family: sans-serif; fill: #333333;" class="" y="301" x="981"/><text style="font-weight:Normal; font-size: 12px; text-anchor: start; font-family: sans-serif; fill: #333333;" class="" y="315" x="892"/><text style="font-weight:Normal; font-size: 12px; text-anchor: middle; font-family: sans-serif; fill: #333333;" class="" y="300" x="802"/></g><g transform="translate(0,0)"><g transform="matrix(1,0,0,1,999,297)"><path style="fill:none;stroke:#333333;stroke-width:3.0;;" d="m1.0569795,-0.41495999999999994l71.4555,-0.025114742857142856c1.774365,0 2.7736650000000003,0.7234342285714286 2.7736650000000003,2.0077462857142856c-0.215475,10.141798285714284 0.6700395,22.029142857142855 0.5722215,34.941542857142856c0.061467,1.283585714285714 -0.713178,2.525425714285714 -2.48754,2.525425714285714l-71.26335,-0.9318425142857143c-1.774365,0 -1.772265,-0.3092005714285714 -1.772265,-1.593448571428571l-0.9074265,-35.43456571428571c0,-1.2843131428571428 -0.1451595,-1.4898062857142855 1.62921,-1.4898062857142855z"/></g><text style="font-weight:bold; font-size: 12px; text-anchor: middle; font-family: arial,helvetica,sans-serif; fill: #333333;" class="" y="321" x="1036">Web</text></g><g transform="translate(0,0)"><g transform="matrix(1,0,0,1,679,296)"><path style="fill:none;stroke:#333333;stroke-width:3.0;;" d="m1.52205048,-0.41495999999999994l102.89592,-0.025114742857142856c2.5550856,0 3.9940776000000002,0.7234342285714286 3.9940776000000002,2.0077462857142856c-0.310284,10.141798285714284 0.96485688,22.029142857142855 0.8239989600000001,34.941542857142856c0.08851248,1.283585714285714 -1.02697632,2.525425714285714 -3.5820576,2.525425714285714l-102.619224,-0.9318425142857143c-2.5550856,0 -2.5520616000000005,-0.3092005714285714 -2.5520616000000005,-1.593448571428571l-1.3066941600000002,-35.43456571428571c0,-1.2843131428571428 -0.20902968,-1.4898062857142855 2.3460624000000005,-1.4898062857142855z"/></g><text style="font-weight:bold; font-size: 12px; text-anchor: middle; font-family: arial,helvetica,sans-serif; fill: #333333;" class="svg-txt-center" y="320" x="733">Main Topic</text></g><g transform="translate(0,0)"><path style="fill:none;stroke:#333333;stroke-width:2;;" d="M1076,316 C1117.5,316 1159,237.5  1159,159"/><polyline style="fill:#ffffff;stroke:#333333;stroke-width:2;fill-opacity:0;" points="1168,176 1159,159 1148,176"/><text style="font-weight:Normal; font-size: 12px; text-anchor: middle; font-family: sans-serif; fill: #333333;" class="" y="165" x="1138"/><text style="font-weight:Normal; font-size: 12px; text-anchor: start; font-family: sans-serif; fill: #333333;" class="" y="266" x="1133"/><text style="font-weight:Normal; font-size: 12px; text-anchor: middle; font-family: sans-serif; fill: #333333;" class="" y="297" x="1068"/></g><g transform="translate(0,0)"><g transform="matrix(1,0,0,1,1122,117)"><path style="fill:none;stroke:#333333;stroke-width:3.0;;" d="m1.0569795,-0.41495999999999994l71.4555,-0.025114742857142856c1.774365,0 2.7736650000000003,0.7234342285714286 2.7736650000000003,2.0077462857142856c-0.215475,10.141798285714284 0.6700395,22.029142857142855 0.5722215,34.941542857142856c0.061467,1.283585714285714 -0.713178,2.525425714285714 -2.48754,2.525425714285714l-71.26335,-0.9318425142857143c-1.774365,0 -1.772265,-0.3092005714285714 -1.772265,-1.593448571428571l-0.9074265,-35.43456571428571c0,-1.2843131428571428 -0.1451595,-1.4898062857142855 1.62921,-1.4898062857142855z"/></g><text style="font-weight:bold; font-size: 12px; text-anchor: middle; font-family: arial,helvetica,sans-serif; fill: #333333;" class="" y="141" x="1159">XSS</text></g><g transform="translate(0,0)"><path style="fill:none;stroke:#333333;stroke-width:2;;" d="M1076,316 C1139,316 1139,384  1202,384"/><polyline style="fill:#ffffff;stroke:#333333;stroke-width:2;fill-opacity:0;" points="1184,393 1202,384 1185,373"/><text style="font-weight:Normal; font-size: 12px; text-anchor: middle; font-family: sans-serif; fill: #333333;" class="" y="363" x="1196"/><text style="font-weight:Normal; font-size: 12px; text-anchor: start; font-family: sans-serif; fill: #333333;" class="" y="350" x="1139"/><text style="font-weight:Normal; font-size: 12px; text-anchor: middle; font-family: sans-serif; fill: #333333;" class="" y="308" x="1095"/></g><g transform="translate(0,0)"><g transform="matrix(1,0,0,1,1206,365)"><path style="fill:none;stroke:#333333;stroke-width:3.0;;" d="m1.25428234,-0.41495999999999994l84.79386,-0.025114742857142856c2.1055797999999997,0 3.2914158000000002,0.7234342285714286 3.2914158000000002,2.0077462857142856c-0.255697,10.141798285714284 0.79511354,22.029142857142855 0.67903618,34.941542857142856c0.07294084,1.283585714285714 -0.84630456,2.525425714285714 -2.9518808,2.525425714285714l-84.56584199999999,-0.9318425142857143c-2.1055797999999997,0 -2.1030878,-0.3092005714285714 -2.1030878,-1.593448571428571l-1.07681278,-35.43456571428571c0,-1.2843131428571428 -0.17225594,-1.4898062857142855 1.9333292000000002,-1.4898062857142855z"/></g><text style="font-weight:bold; font-size: 12px; text-anchor: middle; font-family: arial,helvetica,sans-serif; fill: #333333;" class="" y="389" x="1250">LFI/RFI</text></g><g transform="translate(0,0)"><path style="fill:none;stroke:#333333;stroke-width:2;;" d="M789,315 C906,315 906,589  1023,589"/><polyline style="fill:#ffffff;stroke:#333333;stroke-width:2;fill-opacity:0;" points="1004,596 1023,589 1006,577"/><text style="font-weight:Normal; font-size: 12px; text-anchor: middle; font-family: sans-serif; fill: #333333;" class="" y="567" x="1025"/><text style="font-weight:Normal; font-size: 12px; text-anchor: start; font-family: sans-serif; fill: #333333;" class="" y="452" x="906"/><text style="font-weight:Normal; font-size: 12px; text-anchor: middle; font-family: sans-serif; fill: #333333;" class="" y="315" x="809"/></g><g transform="translate(0,0)"><g transform="matrix(1,0,0,1,1027,570)"><path style="fill:none;stroke:#333333;stroke-width:3.0;;" d="m1.36702682,-0.41495999999999994l92.41578,-0.025114742857142856c2.2948454,0 3.5872734,0.7234342285714286 3.5872734,2.0077462857142856c-0.278681,10.141798285714284 0.86658442,22.029142857142855 0.74007314,34.941542857142856c0.07949732,1.283585714285714 -0.92237688,2.525425714285714 -3.2172184,2.525425714285714l-92.167266,-0.9318425142857143c-2.2948454,0 -2.2921294,-0.3092005714285714 -2.2921294,-1.593448571428571l-1.17360494,-35.43456571428571c0,-1.2843131428571428 -0.18773962,-1.4898062857142855 2.1071116,-1.4898062857142855z"/></g><text style="font-weight:bold; font-size: 12px; text-anchor: middle; font-family: arial,helvetica,sans-serif; fill: #333333;" class="" y="594" x="1075">Forensic</text></g><text style="font-weight:Normal; font-size: 16px; text-anchor: end; font-family: Arial; fill: #ccc;" y="67958297" x="372412066">www.sketchboard.io</text></svg>